<svg width="161" height="170" viewBox="0 0 161 170" fill="none" xmlns="http://www.w3.org/2000/svg">
<path d="M53.2983 38.7923C51.0451 40.1714 50.4096 42.2975 51.5651 44.5386C53.7605 48.6759 60 47.2968 60 42.6423C60 38.7923 56.5336 36.7812 53.2983 38.7923ZM57.3424 40.3438C58.4401 41.3782 58.5557 43.5043 57.5735 44.4811C56.4758 45.5729 54.396 45.2856 53.4138 43.9065C52.2583 42.2401 52.2583 41.9528 53.6449 40.5737C55.0315 39.1946 56.1292 39.1371 57.3424 40.3438Z" fill="black"/>
<path d="M49.4343 4.26272C41.5343 7.06272 38.5343 10.5627 36.1343 19.8627C35.3343 23.1627 34.4343 24.4627 32.7343 24.8627C30.6343 25.3627 30.5343 25.5627 31.9343 26.6627C35.0343 29.2627 72.0343 29.7627 79.6343 27.3627C82.3343 26.5627 82.2343 25.0627 79.4343 24.6627C77.6343 24.4627 77.0343 23.4627 76.4343 20.1627C75.0343 11.8627 70.5343 6.56272 63.2343 4.36272C57.2343 2.56272 54.3343 2.56272 49.4343 4.26272ZM62.0343 6.46272C62.9343 6.76272 63.6343 7.76272 63.6343 8.56272C63.6343 9.76272 62.9343 9.96272 60.5343 9.46272C55.6343 8.56272 50.1343 10.4627 46.7343 14.3627C45.0343 16.2627 43.2343 17.8627 42.6343 17.8627C39.1343 17.8627 45.0343 9.46272 50.1343 7.26272C53.3343 5.86272 59.4343 5.46272 62.0343 6.46272Z" fill="#C01D1D"/>
<path d="M36.2 45.6683C35.8 45.9683 35.5 47.2683 35.5 48.4683C35.5 50.1683 34 51.1683 27.5 53.8683C23.2 55.6683 18.5 57.9683 17.3 58.9683L15 60.8683L21.5 60.9683C31.6 60.9683 45.5 57.1683 45.5 54.3683C45.5 53.7683 44.2 52.6683 42.6 52.1683C40.6 51.4683 39.6 50.2683 39.2 48.0683C38.6 45.0683 37.6 44.2683 36.2 45.6683Z" fill="#ECDD05"/>
<path d="M45 2.20006C39.6 5.00006 34.2 11.8001 33.4 17.0001C33 19.7001 32.1 21.1001 30.4 21.9001C28.7 22.7001 28 23.8001 28 25.9001C28 29.2001 29.4 30.7001 33 31.2001C35.3 31.5001 35.4 31.9001 35.1 36.0001C35 38.5001 34.3 41.2001 33.6 42.0001C32.9 42.8001 31.9 44.6001 31.3 46.0001C30.6 47.7001 28.5 49.2001 24.4 50.7001C13.8 54.8001 8.1 61.4001 12.9 64.0001C16.4 65.8001 27.6 65.1001 37.3 62.5001C40 61.8001 40 61.9001 40 66.4001C40 71.4001 38.3 77.2001 33.8 86.8001C32.2 90.3001 30.6 94.8001 30.2 96.7001L29.5 100.2L14.7 100.1L0 99.9001V114.3V128.7L7.7 129.4C11.9 129.7 18.9 130 23.4 130H31.5L34.4 135.6C37.6 141.7 43.1 146.9 49.7 150.1C53.9 152.1 54 152.3 54 157.1V162H48C43.3 162 42 162.3 42 163.5C42 164.4 42.9 165 44.2 165C46.2 165 46.3 165.1 44.5 167C41.7 170.1 43.4 170.5 48.9 168.1C51.8 166.9 56 166 58.9 166C65 166 66.1 163.6 60.5 162.6C57.1 161.9 57 161.7 57 157.5V153.2L62.8 153.7C65.9 153.9 71.4 154.2 75 154.3L81.5 154.5V158V161.5L75.8 161.8C71.5 162 70 162.5 70 163.5C70 164.4 71 165 72.3 165.1H74.5L72.3 166.7C67.7 169.8 70.9 171.4 75.6 168.3C77 167.4 81.2 166.4 84.8 166.1C91.9 165.5 93.2 164.1 88.1 162.6C85.2 161.8 85 161.4 85 157.3C85 154.9 85.4 153.1 85.9 153.4C87.3 154.3 100 150.1 106 146.7C109 145 114.2 140.7 117.6 137.2L123.9 130.9L140.8 131.6C152.1 132 157.9 131.9 158.3 131.3C158.7 130.7 159.3 124.4 159.6 117.3L160.3 104.3L157.9 103.7C156.6 103.3 150.4 103 144.3 103H133V99.0001C133 95.7001 132.6 94.9001 130.6 94.4001C127.6 93.7001 100.4 94.3001 99.5 95.1001C99.2 95.5001 99.5 97.8001 100.2 100.3C101 103.5 102 105 103.4 105.4C104.6 105.7 115.4 105.9 127.5 106C139.6 106 151.2 106.3 153.4 106.7L157.3 107.3L156.6 115.4C156.3 119.9 156 124.6 156 126V128.5L127.1 128.2L98.1 127.8L95.4 132.2C92.2 137.2 84.2 145 82.2 145C81.4 145 80.6 144.1 80.3 142.9C79.7 140.9 79.7 140.9 77.6 142.8C74.7 145.5 70.2 147.6 65.7 148.4C60.8 149.3 60 147.4 63.4 142.4C64.8 140.3 65.8 138.4 65.5 138.2C65.3 138 63 138.6 60.5 139.5C53.9 142.1 53.1 140.7 56.9 133.1L60 127H39.8C28.6 127 15.8 126.7 11.3 126.3L3 125.7V114.3V102.8L28.8 103.5C42.9 103.8 56.6 104.3 59.3 104.6C63.9 105.1 64 105 64 102.3C64 100.8 63.3 96.6001 62.5 93.1001C61.6 89.4001 61.3 86.3001 61.8 85.8001C64.3 83.3001 67 93.5001 67 105.2C67 114.7 65.2 123 61.6 131.3L59 137L62.8 135C64.8 133.9 67.3 132.4 68.2 131.8C71.8 129.3 72.1 132.3 69 138.8C67.4 142.2 66.3 145 66.6 145C70.1 145 80 136.8 80 134C80 133.4 80.7 133 81.5 133C82.5 133 83 134.1 83 136.5C83 138.4 83.4 140 83.9 140C85.5 140 91.9 131.8 94.5 126.5C100.2 115 99.7 105 92.8 91.2001C88.4 82.2001 81.2 74.1001 74.6 70.5001C70.6 68.3001 70.5 68.0001 73.7 55.5001C74.6 52.2001 75.3 45.6001 75.4 40.8001L75.5 32.1001L79 31.5001C85.7 30.2001 88.2 25.5001 83.6 22.5001C82.2 21.6001 80.3 18.5001 79 14.9001C75.2 4.40006 68.6 5.85024e-05 56.6 5.85024e-05C51.1 5.85024e-05 48.4 0.500059 45 2.20006ZM67 5.00006C71.7 7.40006 75.4 12.1001 76.9 17.5001C78.2 22.3001 78.9 23.4001 81.3 24.3001C83.9 25.3001 83 27.2001 79.4 28.4001C75.1 29.8001 37.2 29.7001 33.8 28.2001C30.5 26.8001 30.2 25.0001 33 24.3001C34.2 24.0001 35.3 22.6001 35.6 21.1001C37.5 12.2001 40.7 7.50006 46.4 4.90006C52.1 2.30006 61.9 2.40006 67 5.00006ZM61.5 37.5001C65 40.9001 64.8 45.3001 61.1 49.1001C57.8 52.4001 55.3 52.7001 51 50.5001C47.7 48.8001 46.5 45.5001 47.4 40.8001C48.2 36.8001 50.6 35.1001 55.3 35.0001C58 35.0001 59.8 35.7001 61.5 37.5001ZM39 47.0001C39.7 48.7001 41.6 50.8001 43.1 51.6001C49.2 54.7001 45.4 57.7001 31.9 60.5001C23.9 62.2001 15.4 62.5001 14.5 61.0001C13.7 59.7001 20.2 55.7001 27.7 52.9001C33.2 50.8001 33.9 50.2001 34.5 47.3001C35.2 43.2001 37.4 43.1001 39 47.0001ZM95 111.1C95.9 114.6 95 117 92.9 117C91.1 117 90.5 115.6 90.9 112C91.4 107.3 94 106.8 95 111.1ZM91 121.1C91 122.1 90.3 123 89.5 123C88 123 87.4 119.9 88.6 118.7C89.7 117.7 91 119 91 121.1Z" fill="#151515"/>
<path d="M67 106L62.5 126.5L5 125.5L5.5 104L67 106Z" fill="#116A27" stroke="#116A27"/>
<path d="M156 107.5L99 106.5C99 106.5 100 112 99 117C98 122 96.5 126.5 96.5 126.5L156 127.5V107.5Z" fill="#116A27" stroke="#116A27"/>
</svg>
