<svg width="315" height="186" viewBox="0 0 315 186" fill="none" xmlns="http://www.w3.org/2000/svg">
<path d="M79.9 144C77.2 147.6 72.7 151.7 68.7 154.4L62 158.9L65.9 161.1C68.1 162.3 71.3 164.5 73.2 165.9C76.6 168.5 76.7 168.5 95 168.5L113.4 168.4L110.3 165.6C108.5 164 104.1 161.7 100.3 160.5C96.6 159.2 92.5 157.1 91.2 155.8C88.3 153 85.9 147.5 85 142L84.4 138L79.9 144Z" fill="#ECECEC"/>
<path d="M219.1 105C209.5 115.5 206.3 120.1 195.7 138.6L188 152.1L191.2 155.4C193 157.3 197.2 161 200.5 163.7L206.7 168.6H227.9H249.2L247.3 166.5C245.1 164.1 239.7 161.2 235.4 160.2C230.8 159.1 225.9 154.8 223.8 150.1C219.9 141.2 220.4 127.2 225.4 106.1C226.7 100.6 227.7 96.1 227.6 96C227.5 96 223.7 100 219.1 105Z" fill="#ECECEC"/>
<path d="M81.0147 9.96341C73.2147 11.2634 61.2147 15.4634 54.3147 19.3634C31.8147 32.0634 17.3147 55.5634 12.3147 87.3634C10.2147 100.863 10.7147 135.163 13.2147 145.963C16.1147 158.563 21.6147 171.963 25.1147 174.663C26.6147 175.863 70.8147 177.063 70.8147 175.863C70.8147 174.163 59.1147 167.963 52.3147 166.063C45.5147 164.263 45.3147 164.063 45.0147 160.763C44.6147 156.463 46.2147 154.963 54.3147 151.963C61.8147 149.263 64.7147 147.363 71.1147 141.163C74.3147 138.163 77.2147 133.963 79.1147 129.863C80.7147 126.263 82.1147 123.263 82.3147 123.063C82.4147 122.963 85.7147 124.163 89.6147 125.763C102.415 131.063 111.115 132.363 132.215 132.263L151.115 132.163L150.615 140.863C150.115 149.063 148.815 153.463 146.415 155.063C145.815 155.463 143.615 155.863 141.615 155.863C137.315 155.863 137.215 156.063 139.415 159.763C141.615 163.563 147.015 166.963 151.715 167.563C163.015 169.063 172.815 160.163 187.015 135.363C199.415 113.763 200.515 112.063 211.315 99.8634C228.615 80.1634 236.815 74.2634 255.815 67.8634C277.615 60.4634 292.015 51.3634 299.615 39.8634L303.715 33.8634L301.115 29.8634L298.415 25.8634H289.915H281.315L276.715 20.7634L272.115 15.5634L260.715 15.7634L249.315 15.9634L247.015 12.9634C244.015 8.86342 240.215 8.86342 236.615 12.8634L234.015 15.8634H217.115C207.115 15.8634 195.215 16.5634 187.815 17.5634C180.615 18.4634 167.915 19.2634 157.815 19.2634L140.315 19.3634L126.815 15.1634C107.715 9.26341 94.5147 7.76341 81.0147 9.96341ZM267.915 24.8634C271.815 26.9634 269.215 32.3634 264.615 31.6634C261.615 31.2634 260.815 27.0634 263.415 25.1634C265.515 23.5634 265.415 23.5634 267.915 24.8634Z" fill="#ECECEC"/>
<path d="M74.4877 1.32605C56.2877 5.12605 39.9877 14.026 28.1877 26.726C14.5877 41.526 6.68769 58.526 1.88769 83.326C-0.612309 95.826 -0.612309 130.526 1.78769 143.326C3.48769 153.026 7.48769 165.926 10.6877 172.126C13.6877 178.026 19.2877 183.626 23.2877 184.826C25.3877 185.326 38.5877 185.826 53.2877 185.826H79.4877V182.326V178.826L101.688 178.626L123.888 178.326L123.588 172.826C123.088 162.526 117.288 156.026 105.188 152.226C102.088 151.226 98.7877 149.626 97.8877 148.726C96.1877 146.826 94.6877 138.826 96.0877 138.826C96.5877 138.826 100.588 139.526 104.988 140.426C109.588 141.326 118.688 142.026 126.288 142.026C139.188 142.126 139.588 142.226 139.288 144.226C139.088 145.726 138.188 146.426 135.788 146.626C134.088 146.826 131.488 148.026 130.088 149.326C127.988 151.326 127.488 152.626 127.488 156.726C127.488 160.826 128.088 162.426 130.788 166.026C136.088 172.926 142.388 176.226 151.088 176.626C160.388 177.126 167.088 174.326 175.488 166.326L181.388 160.626L187.688 166.026C191.188 168.926 196.288 173.026 199.088 175.126L204.288 178.826H231.888H259.588L258.888 172.526C257.788 161.826 252.888 156.426 240.888 152.426C231.988 149.526 230.488 146.926 230.488 135.126C230.488 119.226 239.088 85.426 243.988 82.2261C245.288 81.426 252.288 78.626 259.588 75.926C281.288 68.126 291.188 62.326 301.188 51.426C309.888 41.926 314.488 31.1261 314.488 20.226V16.826H299.688H284.888L279.488 11.326L274.088 5.82605H263.588C253.988 5.82605 252.888 5.62605 249.788 3.22604C243.988 -1.17395 235.288 -0.873947 230.988 3.82605C229.388 5.62605 227.788 5.82605 217.388 5.82605C210.888 5.82605 197.188 6.72604 186.788 7.92604C176.488 9.12605 161.888 10.026 154.488 10.026C141.588 10.1261 140.488 9.92604 129.488 6.32605C123.188 4.32605 114.588 2.02605 110.488 1.22604C101.088 -0.473953 83.0877 -0.373947 74.4877 1.32605ZM109.488 10.426C113.988 11.226 121.588 13.226 126.288 14.926C142.388 20.426 156.088 20.726 191.988 16.326C198.588 15.526 210.588 14.826 218.688 14.826H233.488L236.288 11.6261C238.688 9.12605 239.588 8.62605 241.888 9.22604C243.388 9.52605 245.088 11.026 245.688 12.326C246.788 14.826 247.088 14.826 258.388 14.826H270.088L275.488 20.326L280.888 25.826H289.488L297.988 25.926L300.388 29.6261L302.688 33.326L300.588 37.326C296.288 45.326 285.188 54.926 272.888 61.126C270.088 62.526 262.488 65.526 255.988 67.826C237.188 74.2261 233.688 76.526 218.488 91.826C203.688 106.626 198.888 113.026 186.488 134.826C177.488 150.526 174.088 155.526 168.588 160.726C158.988 169.726 146.188 170.226 139.188 161.826C135.688 157.826 135.988 155.226 139.688 155.626C145.888 156.326 148.188 152.326 148.688 139.826L148.988 132.326L145.988 132.526C144.388 132.626 136.488 132.726 128.488 132.726C111.788 132.926 101.588 131.326 89.3877 126.626C84.9877 125.026 81.2877 123.726 81.1877 123.926C81.0877 124.126 79.7877 126.926 78.2877 130.026C73.3877 140.226 64.3877 148.126 52.9877 152.326C46.8877 154.526 43.4877 157.426 43.4877 160.426C43.4877 163.226 45.0877 164.426 49.9877 165.326C55.4877 166.226 65.4877 171.126 68.3877 174.226L70.7877 176.826H49.3877C37.5877 176.826 26.9877 176.526 25.7877 176.226C22.9877 175.426 18.9877 169.326 15.8877 161.326C7.38769 138.626 6.18769 102.126 13.0877 74.526C23.2877 33.926 52.7877 9.22604 91.5877 8.92604C96.8877 8.82605 104.988 9.52605 109.488 10.426ZM225.188 106.826C222.488 117.026 222.088 119.926 222.088 132.826C221.988 146.526 222.088 147.526 224.488 151.726C227.088 156.226 230.288 158.426 238.788 161.326C243.588 163.026 249.488 167.226 249.488 168.926C249.488 169.426 240.388 169.826 228.288 169.826H207.188L201.588 165.626C194.088 159.926 187.488 153.826 187.488 152.526C187.488 150.826 204.088 122.326 208.388 116.426C212.388 111.126 227.588 94.526 228.088 95.026C228.188 95.2261 226.888 100.526 225.188 106.826ZM86.4877 143.326C86.5877 147.526 89.7877 154.126 92.8877 156.626C94.3877 157.726 98.4877 159.626 101.988 160.826C108.888 163.126 113.488 166.126 113.488 168.426C113.488 169.626 110.388 169.826 95.1877 169.826C77.8877 169.826 76.6877 169.726 74.8877 167.726C73.8877 166.626 70.4877 164.226 67.2877 162.426L61.3877 159.126L67.3877 155.526C73.3877 151.726 81.8877 143.226 83.7877 139.026C84.7877 136.826 84.9877 136.826 85.5877 138.526C85.9877 139.526 86.3877 141.626 86.4877 143.326Z" fill="black"/>
<path d="M260.988 26.826C260.188 29.526 262.188 32.026 264.888 31.626C266.488 31.426 266.988 30.626 266.988 28.326C266.988 25.826 266.588 25.226 264.288 25.026C262.388 24.826 261.488 25.226 260.988 26.826Z" fill="black"/>
</svg>
