<svg width="328" height="199" viewBox="0 0 328 199" fill="none" xmlns="http://www.w3.org/2000/svg">
<path fill-rule="evenodd" clip-rule="evenodd" d="M38.74 1.70308C36.871 3.78508 36.841 3.68908 45.956 25.1071L52.192 39.7601L46.997 45.1071C40.766 51.5191 33.91 60.2511 31.64 64.6651C29.89 68.0671 29.296 68.3151 15.247 71.5171C1.899 74.5591 0 77.7661 0 97.2721C0 104.632 0.485 112.045 1.077 113.744C2.872 118.893 7.727 121.698 18.995 124.097L29.145 126.259L33.95 133.356C41.446 144.43 51.407 155.09 58.015 159.108C61.682 161.338 62.345 162.918 64.454 174.453C68.992 199.267 67.904 198.252 89.919 198.223C103.232 198.206 106.407 197.916 108.53 196.525C111.44 194.619 113 191.217 113 186.778C113 183.822 113.108 183.751 116.75 184.327C130.568 186.511 153.688 186.087 166.637 183.413C168.507 183.027 168.944 183.676 170.137 188.621C172.323 197.683 173.48 198.162 192.99 198.088C205.831 198.039 209.73 197.704 211.58 196.492C214.069 194.862 214.485 193.579 217.913 176.953C219.104 171.178 220.284 165.481 220.536 164.293C220.792 163.081 223.797 160.132 227.389 157.57C234.523 152.478 246.388 140.085 251.433 132.453C260.193 119.202 264.589 101.709 262.139 89.8481C261.446 86.4901 261.018 83.6241 261.189 83.4801C261.36 83.3361 263.248 82.9021 265.384 82.5151C268.909 81.8771 269.186 81.9801 268.385 83.6331C267.899 84.6341 267.501 88.6031 267.501 92.4531C267.5 98.4891 267.89 100.027 270.33 103.623C277.332 113.941 291.817 117.606 303.068 111.906C307.798 109.509 313.459 103.124 315.004 98.4401C316.686 93.3431 315.708 84.6681 313.072 81.3181C310.098 77.5371 310.451 76.6021 314.597 77.2751C322.876 78.6181 330.141 72.1501 326.535 66.6461C325.637 65.2761 323.544 63.5921 321.883 62.9051C317.424 61.0581 305.746 61.6151 297.097 64.0871C291.372 65.7241 286.174 66.3311 276 66.5511C268.575 66.7121 261.098 67.2691 259.384 67.7901C255.507 68.9681 255.13 68.7111 250.821 61.9531C243.066 49.7931 225.692 35.3181 208.5 26.6941C184.227 14.5181 164.056 9.60808 138.5 9.65708C122.088 9.68808 103.09 12.9021 94.389 17.1191C92.677 17.9491 88.232 16.6051 70.889 10.0121C59.125 5.54008 48.466 1.44808 47.203 0.917079C43.723 -0.543921 40.486 -0.242921 38.74 1.70308ZM56.203 7.58008C62.966 10.1241 70.75 13.0911 73.5 14.1721C91.327 21.1811 91.14 21.1371 95.994 19.5621C126.617 9.62708 158.151 10.2841 189.319 21.5051C215.405 30.8961 238.156 47.7551 249.731 66.2711C252.702 71.0231 253.748 71.9841 255.434 71.5121C261.376 69.8511 273.466 68.8001 280.852 69.3021C288.028 69.7901 290.237 69.5241 296.529 67.4121C305.641 64.3531 319.209 63.9271 322.171 66.6081C324.354 68.5831 324.534 71.2651 322.593 72.8761C321.819 73.5191 317.478 74.2391 312.948 74.4771C308.417 74.7151 304.485 75.1351 304.209 75.4111C303.933 75.6861 305.573 77.9361 307.854 80.4101C311.841 84.7361 312 85.1611 312 91.5001C312 97.1791 311.587 98.6931 309.021 102.423C305.593 107.406 297.552 111.953 292.17 111.953C279.212 111.953 268.537 100.574 270.514 88.8701C270.873 86.7481 272.029 83.9151 273.083 82.5751C274.137 81.2341 275 79.8711 275 79.5451C275 78.5411 267.427 78.8901 261.996 80.1431C257.18 81.2551 256.878 81.5021 257.424 83.8931C262.725 107.122 253.53 130.593 231.738 149.453C215.853 163.201 217.495 160.604 214.073 177.404C212.336 185.932 210.362 193.02 209.479 193.904C208.255 195.129 205.106 195.493 194.44 195.642C176.113 195.899 175.511 195.638 173.49 186.555L171.88 179.317L165.69 180.662C153.542 183.302 123.878 183.328 111.862 180.709C111.148 180.554 110.222 182.924 109.507 186.739C108.859 190.196 107.788 193.565 107.127 194.226C105.332 196.021 78.27 196.447 75.029 194.731C72.266 193.268 71.408 190.693 67.936 173.453L65.721 162.453L59.611 156.953C49.735 148.064 43.207 140.911 38.316 133.617C32.033 124.247 30.789 123.293 23.154 121.985C12.72 120.197 9.069 118.824 6.441 115.7C4.082 112.898 4 112.275 4 97.2761V81.7531L7.25 78.5271C9.968 75.8291 11.952 75.0151 19.366 73.5531C24.242 72.5911 29.195 71.3661 30.372 70.8291C31.549 70.2931 34.43 66.7591 36.774 62.9761C39.118 59.1941 44.402 52.5781 48.516 48.2761C52.63 43.9731 55.997 40.1731 55.998 39.8301C56 39.1831 55.295 37.5311 46.33 17.1711C41.332 5.82308 40.662 2.95308 43.012 2.95308C43.504 2.95308 49.44 5.03508 56.203 7.58008ZM121.128 23.4481C112.555 24.7761 107.8 27.1391 107.161 30.3881C106.442 34.0471 108.069 37.0841 111.52 38.5261C114.533 39.7851 116.138 39.7771 124.234 38.4641C140.63 35.8051 155.409 37.0211 172.797 42.4621C181.624 45.2231 183.999 45.0971 187.75 41.6641C192.287 37.5111 189.145 31.2581 181.378 28.9811C158 22.1281 140.197 20.4931 121.128 23.4481ZM157.245 26.3731C171.197 28.3501 184.508 32.6651 186.157 35.7461C187.319 37.9181 187.202 38.3711 185.02 40.1381C182.407 42.2541 182.278 42.2441 171.334 39.0711C153.759 33.9741 140.705 32.9551 125.206 35.4681C118.013 36.6351 115.412 36.7131 113.706 35.8151C110.836 34.3041 110.137 33.1461 110.728 30.8851C112.025 25.9241 136.989 23.5021 157.245 26.3731ZM89.82 83.2031C89.615 84.6421 88.696 85.5671 87.27 85.7701C84.754 86.1271 81 90.3761 81 92.8651C81 95.6501 83.852 98.7621 87.047 99.4631C89.976 100.107 90.082 100.316 89.867 105.042C89.743 107.743 89.484 109.953 89.289 109.953C89.095 109.953 87.32 109.278 85.346 108.453C80.971 106.625 81 106.626 81 108.332C81 109.567 82.874 110.6 88.25 112.328C89.213 112.637 90 113.804 90 114.922C90 116.039 90.45 116.953 91 116.953C91.55 116.953 92 115.921 92 114.66C92 112.936 92.806 112.129 95.25 111.41C102.085 109.398 102.145 101.22 95.343 98.7601C92.188 97.6191 92 97.2831 92 92.7771C92 88.0651 92.034 88.0151 94.565 88.9781C98.036 90.2971 99 90.2061 99 88.5601C99 87.0311 96.899 85.9531 93.918 85.9531C92.539 85.9531 92 85.2511 92 83.4531C92 80.3421 90.254 80.1421 89.82 83.2031ZM286.176 84.0861C281.184 88.9661 280.732 94.6851 285 98.9531C287.891 101.844 291.35 102.355 295.31 100.476C298.063 99.1701 299.009 97.9581 299.844 94.6701C301.153 89.5111 299.888 86.4621 295.102 83.2401C290.701 80.2781 290.003 80.3441 286.176 84.0861ZM174.128 86.5411C170.351 88.1291 169.045 92.2051 171.129 95.8971C172.422 98.1881 172.387 98.6351 170.786 100.203C168.1 102.835 168.502 107.416 171.635 109.88C175.678 113.061 184.247 112.797 187.657 109.387C189.707 107.336 190.1 106.202 189.608 103.744C189.27 102.053 188.213 100.098 187.26 99.4011C185.616 98.1991 185.616 98.0351 187.263 96.2151C188.218 95.1591 189 93.5931 189 92.7351C189 87.7201 180.12 84.0221 174.128 86.5411ZM294.686 87.1271C297.471 89.7441 297.622 93.6281 295.056 96.7031C292.667 99.5671 289.552 99.5791 287.557 96.7301C284.652 92.5831 286.715 84.9531 290.742 84.9531C291.638 84.9531 293.413 85.9311 294.686 87.1271ZM102 86.9531C102 87.5031 103.35 87.9531 105 87.9531H108V99.9531C108 109.953 108.25 111.953 109.5 111.953C110.756 111.953 111 109.842 111 98.9531V85.9531H106.5C104.025 85.9531 102 86.4031 102 86.9531ZM125 86.9071C125 87.4321 127.955 87.9951 131.566 88.1571L138.131 88.4531L134.566 92.6121C132.605 94.8991 131 97.2061 131 97.7371C131 98.2681 132.42 98.9871 134.155 99.3341C135.89 99.6811 137.915 100.467 138.655 101.081C140.5 102.613 140.346 106.421 138.371 108.06C136.435 109.667 129.327 109.68 127.726 108.079C126.183 106.536 124 106.661 124 108.292C124 110.292 128.479 111.953 133.873 111.953C139.666 111.953 143 109.099 143 104.139C143 100.764 140.083 96.9531 137.5 96.9531C135.306 96.9531 135.641 95.7971 138.959 91.9151C143.61 86.4741 143.134 85.9531 133.5 85.9531C128.771 85.9531 125 86.3761 125 86.9071ZM145.393 87.5351C145.727 88.4051 146 89.9801 146 91.0351C146 92.0901 146.675 92.9531 147.5 92.9531C148.433 92.9531 149 92.0091 149 90.4531C149 88.0641 149.267 87.9531 155 87.9531C158.3 87.9531 161 88.3901 161 88.9241C161 89.4591 159.925 92.2711 158.611 95.1741C150.509 113.072 150.899 111.953 152.766 111.953C154.277 111.953 159.935 100.954 165.218 87.7471C165.881 86.0891 165.131 85.9531 155.361 85.9531C146.129 85.9531 144.863 86.1541 145.393 87.5351ZM182.298 88.8761C183.634 89.3841 184.972 90.7371 185.272 91.8841C186.372 96.0931 177.976 98.7861 174.521 95.3321C172.368 93.1781 172.951 90.7901 176.009 89.2431C179.016 87.7211 179.228 87.7091 182.298 88.8761ZM90 92.9531C90 97.4051 89.269 97.8021 85.978 95.1361C84.067 93.5891 83.907 92.9951 84.902 91.1361C85.545 89.9351 86.955 88.9531 88.035 88.9531C89.661 88.9531 90 89.6441 90 92.9531ZM185.5 102.312C186.35 103.61 186.778 105.368 186.451 106.221C184.498 111.311 172 110.17 172 104.902C172 101.814 174.838 99.9531 179.548 99.9531C183.074 99.9531 184.263 100.424 185.5 102.312ZM95.404 102.259C97.799 104.01 97.121 108.007 94.25 109.062C92.129 109.841 92 109.632 92 105.421C92 100.677 92.547 100.17 95.404 102.259ZM117.727 109.222C117.459 109.92 117.555 112.283 117.941 114.472L118.641 118.453L120.328 114.564C121.6 111.63 121.737 110.341 120.885 109.314C119.472 107.612 118.357 107.579 117.727 109.222Z" fill="black"/>
</svg>
