<svg width="200" height="200" viewBox="0 0 200 200" fill="none" xmlns="http://www.w3.org/2000/svg">
<rect width="200" height="200" rx="50" fill="#044508"/>
<path d="M89.2579 17.2716C87.9384 17.7761 87.628 19.6001 87.628 26.2749V32.8721L85.9981 33.299C75.5589 35.9379 68.496 39.7798 62.9854 45.7949C59.3376 49.8308 57.0868 53.9832 55.5345 59.7266C54.5643 63.2193 54.6031 73.1927 55.5345 76.763C57.4748 83.8259 60.3466 88.7544 65.5467 93.8769C72.3768 100.552 82.6218 106.101 98.1059 111.495C101.637 112.698 105.906 114.445 107.575 115.298C111.261 117.2 114.948 120.499 115.608 122.439C116.268 124.535 115.802 128.144 114.521 130.627C112.581 134.43 108.661 136.41 102.258 136.798C93.1774 137.38 85.9981 134.159 74.4723 124.418C70.514 121.042 69.505 120.615 67.6811 121.508C66.1676 122.245 50.0627 137.613 49.2865 139.048C48.4328 140.717 49.2865 142.075 54.6031 147.431C60.0749 152.903 65.4303 156.706 72.6872 160.315C76.4127 162.177 83.4368 164.778 86.5414 165.398L87.5892 165.631L87.7056 173.237C87.822 180.688 87.822 180.844 88.7534 181.581C89.6071 182.28 90.3833 182.318 99.9298 182.318H110.175L111.106 181.348C112.038 180.417 112.076 180.262 112.154 173.897C112.193 166.369 112.193 166.563 112.542 166.175C112.697 166.019 114.715 165.437 117.044 164.816C128.996 161.751 138.659 155.231 144.558 146.344C147.275 142.231 148.788 138.816 149.991 134.198C150.845 131.015 151 129.657 151 124.496C151 113.669 148.478 107.11 141.647 100.202C135.4 93.8769 127.522 89.9186 107.226 82.8945C102.336 81.187 97.2133 79.2854 95.8551 78.6257C93.1386 77.2675 90.1892 74.8614 89.4131 73.3091C87.8996 70.2822 88.4429 66.7895 90.8101 64.4223C93.0998 62.0939 95.7775 61.2013 101.055 60.9685C104.781 60.7744 105.79 60.852 108.235 61.6282C113.085 63.1029 115.918 64.7328 122.05 69.6613C126.163 72.9987 127.522 73.4256 129.384 72.0285C131.402 70.4762 145.024 55.7295 145.645 54.3713C146.537 52.5473 146.11 51.1503 143.976 48.7442C138.232 42.3799 125.737 35.5498 115.297 33.1438C113.978 32.8721 112.736 32.484 112.503 32.3676C112.27 32.2124 112.115 29.6123 112.115 25.6152V19.1344L110.912 18.0478L109.748 17L99.7358 17.0388C94.264 17.0388 89.5295 17.1552 89.2579 17.2716Z" fill="#C8C8C8"/>
</svg>
