<svg width="464" height="320" viewBox="0 0 464 320" fill="none" xmlns="http://www.w3.org/2000/svg">
<path d="M139 1.50002C113.5 5.00002 89.1 14.5 68.5 28.9C10.2 69.7 -14.5 145.8 9.00001 212.5C25 258 61.8 295 106.5 310.7C147.7 325.1 192 322.3 231.2 302.9C256.5 290.4 277.1 272.4 292.7 249C327 197.8 328.8 130.6 297.2 78.1C283.4 55.2 262.4 34.5 239.1 21.2C209.1 4.00002 173 -3.09998 139 1.50002ZM184 49C229.1 58.8 263.6 94.8 272.1 141C273.9 150.9 273.7 171 271.6 181.4C264.7 216.8 241.1 247.2 208.8 262.5C178.8 276.7 144.9 277.2 114.5 263.9C91.2 253.8 71.3 235.4 60 213.8C50.5 195.7 46.8 180.7 46.7 160.5C46.6 145.9 47.4 140.4 51.7 126C58.2 104.2 73.2 83 92.7 68.4C105.3 58.9 125.5 50.4 141 48.1C145.1 47.5 149.6 46.8 151 46.6C155.9 45.7 175.7 47.2 184 49Z" fill="#5DB339"/>
<path d="M146.2 65.6C144.1 67 144 67.9 144 78.9V90.8L137.3 93.6C132.3 95.7 128.8 98.2 123.9 103.1C115.3 111.6 112.7 117.9 112.6 130C112.5 137.5 112.8 139.2 115.3 144C118.7 150.6 120.9 153.1 127.5 157.9C134.4 162.9 138.9 165.2 150 169.5C166.8 175.9 173.4 181.1 174.6 188.6C175.8 196.5 171.4 201.4 161.6 203C153.2 204.3 143.2 202.7 133.5 198.4C123.9 194.1 120.8 193.4 119.3 195.2C117.5 197.4 111.9 218.1 112.5 220.1C113.7 223.9 128.9 229.9 138.3 230.3L144 230.5V241.2C144 256 144 256 160 256C176.1 256 176 256.1 176 240.5C176 231.1 176.3 229 177.5 229C180.7 229 192.4 222.4 196.5 218.3C210.6 204.3 211.8 178.4 199.2 164.7C193.1 158.2 184.8 152.8 174.6 148.9C162.2 144.2 151.2 138.1 148.4 134.5C145.8 131.1 145.2 125.4 147 122C147.6 120.9 150.1 118.8 152.7 117.3C156.6 115 158.4 114.6 164.9 114.6C171.7 114.6 173.4 115.1 181.3 118.8C186.1 121 191.3 123.8 192.9 124.9C196.2 127.3 199.3 127.6 200.8 125.7C201.3 125.1 203.2 119.4 205 113.1L208.2 101.8L205.9 99.5C201.9 95.7 180.9 88.7 176.8 89.8C176.3 89.9 176 85 176 79C176 64 176 64 160.2 64C151.2 64 147.9 64.4 146.2 65.6Z" fill="#5DB339"/>
<path d="M293.2 37.9C301.3 46.6 310.4 59.2 316.7 70.3L322.3 80.1L371.9 79.8L421.5 79.5L424.8 77.1C430.6 72.6 431.4 70.6 431.8 58.2C432.3 44.6 430.8 39.5 425.2 35.2L421.7 32.5L354.7 32.2L287.7 32L293.2 37.9Z" fill="#5DB339"/>
<path d="M329.5 97.7C333.3 107.2 338.2 126.8 339.6 138.3L340.2 144L397 143.8C452.6 143.5 453.9 143.5 456.7 141.4C458.2 140.3 460.5 137.4 461.8 135C463.7 131.2 464 129 464 120C464 107.8 462.3 102.7 456.9 98.9L453.5 96.5L391.1 96.2C331.8 96 328.8 96 329.5 97.7Z" fill="#5DB339"/>
<path d="M340.2 173.7C339.1 186 336.4 201.4 334.5 206.2C333.8 207.9 336.2 208 376.5 208C424.1 208 423.6 208.1 428.8 201.2C431.3 197.9 431.5 196.9 431.8 185.6C432.1 174.6 431.9 173.1 429.8 169C428.3 166.1 426.1 163.7 423.5 162.3C419.6 160.1 419 160 380.5 160H341.4L340.2 173.7Z" fill="#5DB339"/>
<path d="M323.1 237.1C319.6 244.4 313.5 255.2 309.4 261.2L302.1 272H368.7C442.7 272 439.4 272.3 444.8 265.2C447.3 261.9 447.5 260.8 447.9 250.3C448.3 236.6 446.8 231.5 441.2 227.2L437.7 224.5L383.6 224.2L329.5 224L323.1 237.1Z" fill="#5DB339"/>
</svg>
